<svg width="1520" height="160" viewBox="0 0 1520 160" fill="none" xmlns="http://www.w3.org/2000/svg">
<path d="M40 42C40 40.8954 40.8954 40 42 40H1478C1479.1 40 1480 40.8954 1480 42V118C1480 119.105 1479.1 120 1478 120H42C40.8955 120 40 119.105 40 118V42Z" fill="#FFF7AC"/>
<g filter="url(#filter0_d_0_1)">
<path d="M141.349 83.3636L139.418 95H138.009L139.736 84.6136H133.872L132.145 95H130.736L132.668 83.3636H141.349ZM145.68 95.1818C144.877 95.1818 144.205 94.9905 143.663 94.608C143.122 94.2254 142.739 93.6894 142.516 93C142.296 92.3106 142.26 91.5076 142.408 90.5909C142.552 89.697 142.838 88.9186 143.266 88.2557C143.697 87.589 144.233 87.0739 144.874 86.7102C145.518 86.3428 146.226 86.1591 146.999 86.1591C147.802 86.1591 148.472 86.3523 149.01 86.7386C149.552 87.1212 149.934 87.6591 150.158 88.3523C150.381 89.0417 150.419 89.8485 150.271 90.7727C150.127 91.6591 149.838 92.4337 149.402 93.0966C148.97 93.7557 148.434 94.2689 147.794 94.6364C147.158 95 146.453 95.1818 145.68 95.1818ZM145.703 93.9773C146.317 93.9773 146.849 93.8201 147.3 93.5057C147.754 93.1913 148.122 92.7765 148.402 92.2614C148.686 91.7462 148.877 91.1894 148.976 90.5909C149.067 90.0227 149.063 89.4943 148.964 89.0057C148.866 88.5133 148.656 88.1174 148.334 87.8182C148.012 87.5152 147.559 87.3636 146.976 87.3636C146.362 87.3636 145.826 87.5227 145.368 87.8409C144.913 88.1591 144.546 88.5777 144.266 89.0966C143.985 89.6155 143.798 90.1742 143.703 90.7727C143.612 91.3409 143.614 91.8693 143.709 92.358C143.807 92.8428 144.018 93.2348 144.339 93.5341C144.665 93.8295 145.12 93.9773 145.703 93.9773ZM150.284 97.5L150.92 93.75H151.648C151.852 93.5644 152.036 93.3636 152.199 93.1477C152.366 92.9318 152.521 92.6761 152.665 92.3807C152.809 92.0814 152.951 91.7178 153.091 91.2898C153.231 90.858 153.379 90.3371 153.534 89.7273L154.398 86.2727H159.943L158.716 93.75H160.057L159.42 97.5H158.08L158.489 95H152.034L151.625 97.5H150.284ZM153.17 93.75H157.375L158.398 87.5227H155.443L154.852 89.7273C154.606 90.6402 154.356 91.4375 154.102 92.1193C153.852 92.8011 153.542 93.3447 153.17 93.75ZM165.227 95.1818C164.424 95.1818 163.752 94.9905 163.21 94.608C162.669 94.2254 162.286 93.6894 162.062 93C161.843 92.3106 161.807 91.5076 161.955 90.5909C162.098 89.697 162.384 88.9186 162.812 88.2557C163.244 87.589 163.78 87.0739 164.42 86.7102C165.064 86.3428 165.773 86.1591 166.545 86.1591C167.348 86.1591 168.019 86.3523 168.557 86.7386C169.098 87.1212 169.481 87.6591 169.705 88.3523C169.928 89.0417 169.966 89.8485 169.818 90.7727C169.674 91.6591 169.384 92.4337 168.949 93.0966C168.517 93.7557 167.981 94.2689 167.341 94.6364C166.705 95 166 95.1818 165.227 95.1818ZM165.25 93.9773C165.864 93.9773 166.396 93.8201 166.847 93.5057C167.301 93.1913 167.669 92.7765 167.949 92.2614C168.233 91.7462 168.424 91.1894 168.523 90.5909C168.614 90.0227 168.61 89.4943 168.511 89.0057C168.413 88.5133 168.203 88.1174 167.881 87.8182C167.559 87.5152 167.106 87.3636 166.523 87.3636C165.909 87.3636 165.373 87.5227 164.915 87.8409C164.46 88.1591 164.093 88.5777 163.812 89.0966C163.532 89.6155 163.345 90.1742 163.25 90.7727C163.159 91.3409 163.161 91.8693 163.256 92.358C163.354 92.8428 163.564 93.2348 163.886 93.5341C164.212 93.8295 164.667 93.9773 165.25 93.9773ZM170.399 95L170.604 93.75H170.922C171.183 93.75 171.409 93.6989 171.598 93.5966C171.791 93.4905 171.964 93.3068 172.115 93.0455C172.27 92.7803 172.416 92.4129 172.553 91.9432C172.693 91.4697 172.839 90.8674 172.99 90.1364L173.786 86.2727H179.604L178.149 95H176.808L178.058 87.5227H174.854L174.195 90.6364C174.047 91.3523 173.878 91.983 173.689 92.5284C173.503 93.0701 173.282 93.5246 173.024 93.892C172.77 94.2595 172.465 94.536 172.109 94.7216C171.757 94.9072 171.339 95 170.854 95H170.399ZM182.7 89.4318H185.2C186.223 89.4318 186.96 89.6913 187.411 90.2102C187.865 90.7292 188.03 91.3864 187.905 92.1818C187.814 92.7045 187.611 93.1799 187.297 93.608C186.982 94.0322 186.57 94.3712 186.058 94.625C185.547 94.875 184.95 95 184.268 95H180.609L182.064 86.2727H183.405L182.155 93.75H184.473C185.007 93.75 185.467 93.6117 185.854 93.3352C186.244 93.0549 186.473 92.6932 186.541 92.25C186.621 91.7841 186.513 91.4072 186.217 91.1193C185.926 90.8277 185.518 90.6818 184.996 90.6818H182.496L182.7 89.4318ZM192.991 95.1818C192.17 95.1818 191.495 94.9886 190.969 94.6023C190.446 94.2159 190.082 93.6837 189.878 93.0057C189.673 92.3277 189.643 91.553 189.787 90.6818C189.931 89.7955 190.223 89.0133 190.662 88.3352C191.101 87.6534 191.649 87.1212 192.304 86.7386C192.959 86.3523 193.681 86.1591 194.469 86.1591C195.082 86.1591 195.616 86.2727 196.071 86.5C196.526 86.7273 196.876 87.0455 197.122 87.4545C197.368 87.8636 197.484 88.3409 197.469 88.8864H196.128C196.09 88.4886 195.92 88.1364 195.616 87.8295C195.317 87.5189 194.874 87.3636 194.287 87.3636C193.764 87.3636 193.283 87.5 192.844 87.7727C192.404 88.0417 192.035 88.4223 191.736 88.9148C191.437 89.4034 191.234 89.9773 191.128 90.6364C191.014 91.3106 191.024 91.8977 191.156 92.3977C191.289 92.8977 191.529 93.286 191.878 93.5625C192.226 93.839 192.666 93.9773 193.196 93.9773C193.545 93.9773 193.87 93.9167 194.173 93.7955C194.476 93.6742 194.745 93.5 194.98 93.2727C195.215 93.0455 195.401 92.7727 195.537 92.4545H196.878C196.711 92.9697 196.444 93.4337 196.077 93.8466C195.709 94.2557 195.264 94.5814 194.741 94.8239C194.219 95.0625 193.635 95.1818 192.991 95.1818ZM198.406 95L199.861 86.2727H201.202L200.565 90.0682H201.452L205.224 86.2727H206.952L202.724 90.4773L205.543 95H203.815L201.565 91.3182H200.361L199.747 95H198.406ZM208.682 93.0227L214 86.2727H215.545L214.091 95H212.75L213.864 88.25L208.568 95H207L208.455 86.2727H209.795L208.682 93.0227ZM218.229 93.0227L223.547 86.2727H225.092L223.638 95H222.297L223.411 88.25L218.115 95H216.547L218.001 86.2727H219.342L218.229 93.0227ZM223.126 83.3636H224.376C224.274 83.9773 223.977 84.4792 223.484 84.8693C222.996 85.2595 222.388 85.4545 221.661 85.4545C220.945 85.4545 220.409 85.2595 220.053 84.8693C219.696 84.4792 219.57 83.9773 219.672 83.3636H220.922C220.873 83.6591 220.912 83.9186 221.041 84.142C221.17 84.3655 221.433 84.4773 221.831 84.4773C222.229 84.4773 222.532 84.3655 222.74 84.142C222.948 83.9186 223.077 83.6591 223.126 83.3636ZM230.776 95L232.707 83.3636H236.776C237.586 83.3636 238.232 83.5038 238.713 83.7841C239.194 84.0606 239.524 84.4337 239.702 84.9034C239.88 85.3693 239.92 85.8864 239.821 86.4545C239.738 86.9545 239.58 87.3674 239.349 87.6932C239.122 88.0189 238.849 88.2765 238.531 88.4659C238.217 88.6553 237.889 88.7955 237.548 88.8864L237.526 89C237.874 89.0227 238.209 89.1477 238.531 89.375C238.853 89.6023 239.101 89.928 239.276 90.3523C239.45 90.7765 239.488 91.2955 239.389 91.9091C239.291 92.4924 239.069 93.017 238.724 93.483C238.38 93.9489 237.899 94.3182 237.281 94.5909C236.664 94.8636 235.897 95 234.98 95H230.776ZM232.389 93.75H235.185C236.105 93.75 236.789 93.572 237.236 93.2159C237.687 92.8561 237.957 92.4205 238.048 91.9091C238.109 91.5152 238.065 91.1515 237.918 90.8182C237.774 90.4811 237.533 90.2121 237.196 90.0114C236.863 89.8068 236.442 89.7045 235.935 89.7045H233.071L232.389 93.75ZM233.276 88.4773H235.889C236.313 88.4773 236.711 88.3939 237.082 88.2273C237.454 88.0606 237.764 87.8258 238.014 87.5227C238.264 87.2197 238.42 86.8636 238.48 86.4545C238.571 85.9432 238.469 85.5095 238.173 85.1534C237.878 84.7936 237.344 84.6136 236.571 84.6136H233.912L233.276 88.4773ZM246.25 95L247.5 87.5H245.182C244.655 87.5 244.222 87.6212 243.881 87.8636C243.544 88.1061 243.341 88.4394 243.273 88.8636C243.201 89.2803 243.28 89.608 243.511 89.8466C243.746 90.0852 244.098 90.2045 244.568 90.2045H247.386L247.182 91.4545H244.364C243.773 91.4545 243.28 91.3504 242.886 91.142C242.492 90.9337 242.212 90.6364 242.045 90.25C241.883 89.8598 241.845 89.3977 241.932 88.8636C242.023 88.3258 242.22 87.8636 242.523 87.4773C242.83 87.0909 243.225 86.7936 243.71 86.5852C244.199 86.3769 244.758 86.2727 245.386 86.2727H248.977L247.523 95H246.25ZM240.432 95L243.636 90.6591H245.091L241.886 95H240.432ZM258.143 86.2727L256.712 95H255.371L256.803 86.2727H258.143ZM256.939 90.4318L256.734 91.6818C256.412 91.7955 256.094 91.8958 255.78 91.983C255.465 92.0663 255.14 92.1326 254.803 92.1818C254.469 92.2273 254.106 92.25 253.712 92.25C252.719 92.25 251.969 91.983 251.462 91.4489C250.954 90.9148 250.787 90.1136 250.962 89.0455L251.416 86.25H252.757L252.303 89.0455C252.231 89.4924 252.255 89.8598 252.376 90.1477C252.498 90.4356 252.693 90.6496 252.962 90.7898C253.234 90.9299 253.553 91 253.916 91C254.481 91 255.001 90.9489 255.479 90.8466C255.96 90.7405 256.446 90.6023 256.939 90.4318ZM262.808 95.1818C261.971 95.1818 261.28 94.9962 260.734 94.625C260.189 94.25 259.808 93.7273 259.592 93.0568C259.376 92.3826 259.342 91.5985 259.49 90.7045C259.638 89.8106 259.931 89.0227 260.371 88.3409C260.81 87.6553 261.357 87.1212 262.013 86.7386C262.668 86.3523 263.388 86.1591 264.172 86.1591C264.626 86.1591 265.064 86.2348 265.484 86.3864C265.905 86.5379 266.268 86.7841 266.575 87.125C266.882 87.4621 267.096 87.9091 267.217 88.4659C267.339 89.0227 267.331 89.7083 267.195 90.5227L267.104 91.0909H260.376L260.558 89.9318H265.922C266.009 89.4394 265.986 89 265.854 88.6136C265.725 88.2273 265.5 87.9223 265.178 87.6989C264.859 87.4754 264.456 87.3636 263.967 87.3636C263.464 87.3636 262.994 87.5 262.558 87.7727C262.123 88.0417 261.759 88.3826 261.467 88.7955C261.176 89.2045 260.994 89.6212 260.922 90.0455L260.763 91.0455C260.649 91.7689 260.666 92.3447 260.814 92.7727C260.965 93.2008 261.229 93.5095 261.604 93.6989C261.979 93.8845 262.448 93.9773 263.013 93.9773C263.373 93.9773 263.704 93.928 264.007 93.8295C264.31 93.7273 264.581 93.5758 264.82 93.375C265.058 93.1705 265.259 92.9167 265.422 92.6136L266.649 92.9773C266.441 93.4167 266.147 93.803 265.768 94.1364C265.393 94.4659 264.954 94.7235 264.45 94.9091C263.95 95.0909 263.403 95.1818 262.808 95.1818ZM272.038 95.1818C271.216 95.1818 270.542 94.9886 270.016 94.6023C269.493 94.2159 269.129 93.6837 268.925 93.0057C268.72 92.3277 268.69 91.553 268.834 90.6818C268.978 89.7955 269.269 89.0133 269.709 88.3352C270.148 87.6534 270.696 87.1212 271.351 86.7386C272.006 86.3523 272.728 86.1591 273.516 86.1591C274.129 86.1591 274.663 86.2727 275.118 86.5C275.572 86.7273 275.923 87.0455 276.169 87.4545C276.415 87.8636 276.531 88.3409 276.516 88.8864H275.175C275.137 88.4886 274.966 88.1364 274.663 87.8295C274.364 87.5189 273.921 87.3636 273.334 87.3636C272.811 87.3636 272.33 87.5 271.891 87.7727C271.451 88.0417 271.082 88.4223 270.783 88.9148C270.483 89.4034 270.281 89.9773 270.175 90.6364C270.061 91.3106 270.071 91.8977 270.203 92.3977C270.336 92.8977 270.576 93.286 270.925 93.5625C271.273 93.839 271.713 93.9773 272.243 93.9773C272.591 93.9773 272.917 93.9167 273.22 93.7955C273.523 93.6742 273.792 93.5 274.027 93.2727C274.262 93.0455 274.447 92.7727 274.584 92.4545H275.925C275.758 92.9697 275.491 93.4337 275.124 93.8466C274.756 94.2557 274.311 94.5814 273.788 94.8239C273.266 95.0625 272.682 95.1818 272.038 95.1818ZM276.68 95L276.885 93.75H277.203C277.464 93.75 277.69 93.6989 277.879 93.5966C278.072 93.4905 278.245 93.3068 278.396 93.0455C278.552 92.7803 278.697 92.4129 278.834 91.9432C278.974 91.4697 279.12 90.8674 279.271 90.1364L280.067 86.2727H285.885L284.43 95H283.089L284.339 87.5227H281.135L280.476 90.6364C280.328 91.3523 280.16 91.983 279.97 92.5284C279.785 93.0701 279.563 93.5246 279.305 93.892C279.052 94.2595 278.747 94.536 278.391 94.7216C278.038 94.9072 277.62 95 277.135 95H276.68ZM289.436 95.2045C288.883 95.2045 288.398 95.1004 287.982 94.892C287.565 94.6799 287.256 94.375 287.055 93.9773C286.855 93.5758 286.8 93.0909 286.891 92.5227C286.978 92.0227 287.146 91.6174 287.396 91.3068C287.646 90.9924 287.949 90.7462 288.305 90.5682C288.665 90.3864 289.052 90.2519 289.464 90.1648C289.881 90.0739 290.296 90.0038 290.709 89.9545C291.247 89.8864 291.684 89.8333 292.021 89.7955C292.358 89.7576 292.612 89.6951 292.783 89.608C292.953 89.5208 293.057 89.3712 293.095 89.1591V89.1136C293.186 88.5568 293.112 88.1231 292.874 87.8125C292.635 87.4981 292.209 87.3409 291.595 87.3409C290.959 87.3409 290.427 87.4811 289.999 87.7614C289.571 88.0417 289.254 88.3409 289.05 88.6591L287.868 88.2045C288.179 87.6742 288.55 87.2614 288.982 86.9659C289.413 86.6667 289.866 86.4583 290.339 86.3409C290.813 86.2197 291.269 86.1591 291.709 86.1591C291.989 86.1591 292.305 86.1932 292.658 86.2614C293.01 86.3258 293.339 86.4602 293.646 86.6648C293.957 86.8693 294.19 87.178 294.345 87.5909C294.504 88.0038 294.527 88.5568 294.413 89.25L293.459 95H292.118L292.322 93.8182H292.254C292.133 94.0076 291.947 94.2102 291.697 94.4261C291.451 94.642 291.139 94.8258 290.76 94.9773C290.385 95.1288 289.944 95.2045 289.436 95.2045ZM289.822 94C290.353 94 290.817 93.8958 291.214 93.6875C291.616 93.4792 291.938 93.2102 292.18 92.8807C292.427 92.5511 292.58 92.2045 292.641 91.8409L292.845 90.6136C292.777 90.6818 292.643 90.7443 292.442 90.8011C292.241 90.8542 292.014 90.9015 291.76 90.9432C291.51 90.9811 291.266 91.0152 291.027 91.0455C290.792 91.072 290.603 91.0947 290.459 91.1136C290.103 91.1591 289.764 91.233 289.442 91.3352C289.124 91.4337 288.855 91.5833 288.635 91.7841C288.419 91.9811 288.285 92.25 288.232 92.5909C288.152 93.0568 288.264 93.4091 288.567 93.6477C288.87 93.8826 289.288 94 289.822 94ZM295.906 95L297.361 86.2727H300.929C301.861 86.2727 302.569 86.4867 303.054 86.9148C303.539 87.339 303.724 87.8977 303.611 88.5909C303.52 89.125 303.293 89.536 302.929 89.8239C302.565 90.1117 302.134 90.3068 301.634 90.4091C301.944 90.4545 302.236 90.5682 302.509 90.75C302.785 90.9318 302.995 91.1818 303.139 91.5C303.287 91.8182 303.323 92.2045 303.247 92.6591C303.171 93.1061 302.99 93.5057 302.702 93.858C302.418 94.2102 302.046 94.4886 301.588 94.6932C301.134 94.8977 300.611 95 300.02 95H295.906ZM297.384 93.7727H300.224C300.69 93.7727 301.073 93.6629 301.372 93.4432C301.671 93.2197 301.849 92.9205 301.906 92.5455C301.986 92.0909 301.914 91.7348 301.69 91.4773C301.471 91.2197 301.134 91.0909 300.679 91.0909H297.838L297.384 93.7727ZM298.02 89.9318H300.315C300.671 89.9318 300.988 89.8826 301.264 89.7841C301.541 89.6818 301.764 89.5379 301.935 89.3523C302.105 89.1629 302.209 88.9394 302.247 88.6818C302.315 88.3182 302.211 88.0303 301.935 87.8182C301.662 87.6061 301.259 87.5 300.724 87.5H298.429L298.02 89.9318ZM311.504 83.3636H312.891L311.379 92.5227H311.493L319.368 83.3636H320.732L318.8 95H317.391L318.913 85.8636H318.8L310.936 95H309.572L311.504 83.3636ZM320.665 95L320.869 93.75H321.188C321.449 93.75 321.674 93.6989 321.864 93.5966C322.057 93.4905 322.229 93.3068 322.381 93.0455C322.536 92.7803 322.682 92.4129 322.818 91.9432C322.958 91.4697 323.104 90.8674 323.256 90.1364L324.051 86.2727H329.869L328.415 95H327.074L328.324 87.5227H325.119L324.46 90.6364C324.313 91.3523 324.144 91.983 323.955 92.5284C323.769 93.0701 323.547 93.5246 323.29 93.892C323.036 94.2595 322.731 94.536 322.375 94.7216C322.023 94.9072 321.604 95 321.119 95H320.665ZM332.966 89.4318H335.466C336.489 89.4318 337.225 89.6913 337.676 90.2102C338.131 90.7292 338.295 91.3864 338.17 92.1818C338.08 92.7045 337.877 93.1799 337.562 93.608C337.248 94.0322 336.835 94.3712 336.324 94.625C335.813 94.875 335.216 95 334.534 95H330.875L332.33 86.2727H333.67L332.42 93.75H334.739C335.273 93.75 335.733 93.6117 336.119 93.3352C336.509 93.0549 336.739 92.6932 336.807 92.25C336.886 91.7841 336.778 91.4072 336.483 91.1193C336.191 90.8277 335.784 90.6818 335.261 90.6818H332.761L332.966 89.4318ZM341.416 93.0227L346.734 86.2727H348.28L346.825 95H345.484L346.598 88.25L341.303 95H339.734L341.189 86.2727H342.53L341.416 93.0227ZM357.44 86.2727L356.009 95H354.668L356.099 86.2727H357.44ZM356.236 90.4318L356.031 91.6818C355.709 91.7955 355.391 91.8958 355.077 91.983C354.762 92.0663 354.437 92.1326 354.099 92.1818C353.766 92.2273 353.402 92.25 353.009 92.25C352.016 92.25 351.266 91.983 350.759 91.4489C350.251 90.9148 350.084 90.1136 350.259 89.0455L350.713 86.25H352.054L351.599 89.0455C351.527 89.4924 351.552 89.8598 351.673 90.1477C351.795 90.4356 351.99 90.6496 352.259 90.7898C352.531 90.9299 352.849 91 353.213 91C353.777 91 354.298 90.9489 354.776 90.8466C355.257 90.7405 355.743 90.6023 356.236 90.4318Z" fill="black"/>
</g>
<path d="M821.83 94L823.762 82.3636H827.694C828.603 82.3636 829.321 82.5265 829.847 82.8523C830.378 83.178 830.736 83.6193 830.921 84.1761C831.111 84.733 831.148 85.3561 831.035 86.0455C830.921 86.7273 830.677 87.3485 830.302 87.9091C829.931 88.4697 829.427 88.9167 828.79 89.25C828.158 89.5833 827.391 89.75 826.489 89.75H823.671L823.876 88.5H826.648C827.27 88.5 827.789 88.392 828.205 88.1761C828.622 87.9602 828.948 87.6667 829.183 87.2955C829.417 86.9242 829.573 86.5076 829.648 86.0455C829.724 85.5758 829.705 85.1591 829.592 84.7955C829.482 84.428 829.253 84.1402 828.904 83.9318C828.559 83.7197 828.073 83.6136 827.444 83.6136H824.967L823.239 94H821.83ZM835.744 94.1591C834.986 94.1591 834.329 94.0322 833.772 93.7784C833.219 93.5208 832.806 93.1629 832.533 92.7045C832.261 92.2424 832.164 91.7045 832.244 91.0909H833.653C833.619 91.4621 833.683 91.7841 833.846 92.0568C834.013 92.3295 834.259 92.5398 834.585 92.6875C834.914 92.8352 835.308 92.9091 835.766 92.9091C836.255 92.9091 836.713 92.8239 837.141 92.6534C837.573 92.483 837.935 92.2367 838.227 91.9148C838.518 91.589 838.698 91.2008 838.766 90.75C838.827 90.3447 838.781 89.9848 838.63 89.6705C838.478 89.3561 838.217 89.1098 837.846 88.9318C837.478 88.75 836.997 88.6591 836.403 88.6591H835.448L835.653 87.4091H836.539C837.001 87.4091 837.425 87.322 837.812 87.1477C838.198 86.9735 838.52 86.7292 838.778 86.4148C839.035 86.0966 839.198 85.7235 839.266 85.2955C839.331 84.9205 839.304 84.5947 839.187 84.3182C839.073 84.0379 838.876 83.8201 838.596 83.6648C838.319 83.5095 837.967 83.4318 837.539 83.4318C837.13 83.4318 836.728 83.5057 836.335 83.6534C835.944 83.7973 835.611 84.0076 835.335 84.2841C835.058 84.5568 834.884 84.8864 834.812 85.2727H833.448C833.566 84.6667 833.829 84.1345 834.238 83.6761C834.647 83.214 835.145 82.8542 835.732 82.5966C836.323 82.3352 836.948 82.2045 837.607 82.2045C838.338 82.2045 838.941 82.3561 839.414 82.6591C839.891 82.9583 840.232 83.3523 840.437 83.8409C840.641 84.3258 840.698 84.8485 840.607 85.4091C840.505 86.0492 840.242 86.5909 839.817 87.0341C839.393 87.4773 838.876 87.7917 838.266 87.9773V88.0455C838.982 88.1705 839.501 88.5 839.823 89.0341C840.149 89.5644 840.251 90.197 840.13 90.9318C840.024 91.5909 839.768 92.1629 839.363 92.6477C838.958 93.1288 838.444 93.5019 837.823 93.767C837.202 94.0284 836.509 94.1591 835.744 94.1591ZM841.954 94L842.136 92.9773L846.658 88.7727C847.189 88.2803 847.63 87.8504 847.982 87.483C848.338 87.1155 848.615 86.7708 848.812 86.4489C849.013 86.1269 849.143 85.7879 849.204 85.4318C849.272 85.0227 849.236 84.6686 849.096 84.3693C848.956 84.0701 848.734 83.839 848.431 83.6761C848.128 83.5133 847.764 83.4318 847.34 83.4318C846.893 83.4318 846.486 83.5246 846.119 83.7102C845.751 83.892 845.446 84.1496 845.204 84.483C844.961 84.8125 844.802 85.197 844.727 85.6364H843.386C843.499 84.9545 843.759 84.3561 844.164 83.8409C844.573 83.3258 845.075 82.9242 845.67 82.6364C846.268 82.3485 846.908 82.2045 847.59 82.2045C848.272 82.2045 848.85 82.3485 849.323 82.6364C849.797 82.9242 850.139 83.3125 850.352 83.8011C850.564 84.2898 850.621 84.8333 850.522 85.4318C850.446 85.8636 850.297 86.2822 850.073 86.6875C849.85 87.0928 849.507 87.5455 849.045 88.0455C848.586 88.5417 847.965 89.1477 847.181 89.8636L844.113 92.6591L844.09 92.75H849.499L849.295 94H841.954ZM851.641 94L851.823 92.9773L856.346 88.7727C856.876 88.2803 857.317 87.8504 857.67 87.483C858.026 87.1155 858.302 86.7708 858.499 86.4489C858.7 86.1269 858.831 85.7879 858.891 85.4318C858.96 85.0227 858.924 84.6686 858.783 84.3693C858.643 84.0701 858.422 83.839 858.119 83.6761C857.816 83.5133 857.452 83.4318 857.028 83.4318C856.581 83.4318 856.174 83.5246 855.806 83.7102C855.439 83.892 855.134 84.1496 854.891 84.483C854.649 84.8125 854.49 85.197 854.414 85.6364H853.073C853.187 84.9545 853.446 84.3561 853.852 83.8409C854.261 83.3258 854.763 82.9242 855.357 82.6364C855.956 82.3485 856.596 82.2045 857.278 82.2045C857.96 82.2045 858.537 82.3485 859.011 82.6364C859.484 82.9242 859.827 83.3125 860.039 83.8011C860.251 84.2898 860.308 84.8333 860.21 85.4318C860.134 85.8636 859.984 86.2822 859.761 86.6875C859.537 87.0928 859.194 87.5455 858.732 88.0455C858.274 88.5417 857.653 89.1477 856.869 89.8636L853.8 92.6591L853.778 92.75H859.187L858.982 94H851.641ZM865.102 94.1591C864.246 94.1591 863.556 93.9261 863.033 93.4602C862.511 92.9905 862.166 92.3106 861.999 91.4205C861.833 90.5265 861.852 89.447 862.056 88.1818C862.261 86.9242 862.596 85.8504 863.062 84.9602C863.528 84.0663 864.102 83.3845 864.783 82.9148C865.465 82.4413 866.23 82.2045 867.079 82.2045C867.927 82.2045 868.615 82.4413 869.141 82.9148C869.672 83.3883 870.024 84.0701 870.198 84.9602C870.376 85.8504 870.359 86.9242 870.147 88.1818C869.935 89.447 869.596 90.5246 869.13 91.4148C868.664 92.3049 868.09 92.9848 867.408 93.4545C866.727 93.9242 865.958 94.1591 865.102 94.1591ZM865.306 92.9091C866.158 92.9091 866.888 92.5 867.494 91.6818C868.103 90.8598 868.533 89.6932 868.783 88.1818C868.95 87.1742 868.984 86.3163 868.886 85.608C868.787 84.8996 868.567 84.3598 868.227 83.9886C867.886 83.6174 867.435 83.4318 866.874 83.4318C866.033 83.4318 865.31 83.8466 864.704 84.6761C864.098 85.5019 863.67 86.6705 863.42 88.1818C863.253 89.1894 863.217 90.0455 863.312 90.75C863.406 91.4545 863.622 91.9905 863.96 92.358C864.297 92.7254 864.746 92.9091 865.306 92.9091Z" fill="black"/>
<path d="M1315.95 90.1591C1315.19 90.1591 1314.53 90.0322 1313.98 89.7784C1313.42 89.5208 1313.01 89.1629 1312.74 88.7045C1312.46 88.2424 1312.37 87.7045 1312.45 87.0909H1313.86C1313.82 87.4621 1313.89 87.7841 1314.05 88.0568C1314.22 88.3295 1314.46 88.5398 1314.79 88.6875C1315.12 88.8352 1315.51 88.9091 1315.97 88.9091C1316.46 88.9091 1316.92 88.8239 1317.34 88.6534C1317.78 88.483 1318.14 88.2367 1318.43 87.9148C1318.72 87.589 1318.9 87.2008 1318.97 86.75C1319.03 86.3447 1318.98 85.9848 1318.83 85.6705C1318.68 85.3561 1318.42 85.1098 1318.05 84.9318C1317.68 84.75 1317.2 84.6591 1316.61 84.6591H1315.65L1315.86 83.4091H1316.74C1317.2 83.4091 1317.63 83.322 1318.01 83.1477C1318.4 82.9735 1318.72 82.7292 1318.98 82.4148C1319.24 82.0966 1319.4 81.7235 1319.47 81.2955C1319.53 80.9205 1319.51 80.5947 1319.39 80.3182C1319.28 80.0379 1319.08 79.8201 1318.8 79.6648C1318.52 79.5095 1318.17 79.4318 1317.74 79.4318C1317.33 79.4318 1316.93 79.5057 1316.54 79.6534C1316.15 79.7973 1315.81 80.0076 1315.54 80.2841C1315.26 80.5568 1315.09 80.8864 1315.01 81.2727H1313.65C1313.77 80.6667 1314.03 80.1345 1314.44 79.6761C1314.85 79.214 1315.35 78.8542 1315.94 78.5966C1316.53 78.3352 1317.15 78.2045 1317.81 78.2045C1318.54 78.2045 1319.14 78.3561 1319.62 78.6591C1320.09 78.9583 1320.44 79.3523 1320.64 79.8409C1320.84 80.3258 1320.9 80.8485 1320.81 81.4091C1320.71 82.0492 1320.44 82.5909 1320.02 83.0341C1319.6 83.4773 1319.08 83.7917 1318.47 83.9773V84.0455C1319.19 84.1705 1319.7 84.5 1320.03 85.0341C1320.35 85.5644 1320.45 86.197 1320.33 86.9318C1320.23 87.5909 1319.97 88.1629 1319.57 88.6477C1319.16 89.1288 1318.65 89.5019 1318.03 89.767C1317.41 90.0284 1316.71 90.1591 1315.95 90.1591ZM1325.93 90.1591C1325.07 90.1591 1324.38 89.9261 1323.86 89.4602C1323.34 88.9905 1322.99 88.3106 1322.83 87.4205C1322.66 86.5265 1322.68 85.447 1322.88 84.1818C1323.09 82.9242 1323.42 81.8504 1323.89 80.9602C1324.36 80.0663 1324.93 79.3845 1325.61 78.9148C1326.29 78.4413 1327.06 78.2045 1327.91 78.2045C1328.76 78.2045 1329.44 78.4413 1329.97 78.9148C1330.5 79.3883 1330.85 80.0701 1331.03 80.9602C1331.2 81.8504 1331.19 82.9242 1330.98 84.1818C1330.76 85.447 1330.42 86.5246 1329.96 87.4148C1329.49 88.3049 1328.92 88.9848 1328.24 89.4545C1327.55 89.9242 1326.79 90.1591 1325.93 90.1591ZM1326.13 88.9091C1326.99 88.9091 1327.72 88.5 1328.32 87.6818C1328.93 86.8598 1329.36 85.6932 1329.61 84.1818C1329.78 83.1742 1329.81 82.3163 1329.71 81.608C1329.62 80.8996 1329.4 80.3598 1329.05 79.9886C1328.71 79.6174 1328.26 79.4318 1327.7 79.4318C1326.86 79.4318 1326.14 79.8466 1325.53 80.6761C1324.93 81.5019 1324.5 82.6705 1324.25 84.1818C1324.08 85.1894 1324.05 86.0455 1324.14 86.75C1324.23 87.4545 1324.45 87.9905 1324.79 88.358C1325.12 88.7254 1325.57 88.9091 1326.13 88.9091ZM1335.93 90.1591C1335.07 90.1591 1334.38 89.9261 1333.86 89.4602C1333.34 88.9905 1332.99 88.3106 1332.83 87.4205C1332.66 86.5265 1332.68 85.447 1332.88 84.1818C1333.09 82.9242 1333.42 81.8504 1333.89 80.9602C1334.36 80.0663 1334.93 79.3845 1335.61 78.9148C1336.29 78.4413 1337.06 78.2045 1337.91 78.2045C1338.76 78.2045 1339.44 78.4413 1339.97 78.9148C1340.5 79.3883 1340.85 80.0701 1341.03 80.9602C1341.2 81.8504 1341.19 82.9242 1340.98 84.1818C1340.76 85.447 1340.42 86.5246 1339.96 87.4148C1339.49 88.3049 1338.92 88.9848 1338.24 89.4545C1337.55 89.9242 1336.79 90.1591 1335.93 90.1591ZM1336.13 88.9091C1336.99 88.9091 1337.72 88.5 1338.32 87.6818C1338.93 86.8598 1339.36 85.6932 1339.61 84.1818C1339.78 83.1742 1339.81 82.3163 1339.71 81.608C1339.62 80.8996 1339.4 80.3598 1339.05 79.9886C1338.71 79.6174 1338.26 79.4318 1337.7 79.4318C1336.86 79.4318 1336.14 79.8466 1335.53 80.6761C1334.93 81.5019 1334.5 82.6705 1334.25 84.1818C1334.08 85.1894 1334.05 86.0455 1334.14 86.75C1334.23 87.4545 1334.45 87.9905 1334.79 88.358C1335.12 88.7254 1335.57 88.9091 1336.13 88.9091ZM1342.21 90L1349.12 79.7045L1349.14 79.6136H1343.14L1343.34 78.3636H1350.8L1350.57 79.6818L1343.69 90H1342.21Z" fill="black"/>
<path d="M42 41H1478V39H42V41ZM1479 42V118H1481V42H1479ZM1478 119H42V121H1478V119ZM41 118V42H39V118H41ZM42 119C41.4477 119 41 118.552 41 118H39C39 119.657 40.3432 121 42 121V119ZM1479 118C1479 118.552 1478.55 119 1478 119V121C1479.66 121 1481 119.657 1481 118H1479ZM1478 41C1478.55 41 1479 41.4477 1479 42H1481C1481 40.3431 1479.66 39 1478 39V41ZM42 39C40.3431 39 39 40.3431 39 42H41C41 41.4477 41.4477 41 42 41V39Z" fill="black" fill-opacity="0.1"/>
<defs>
<filter id="filter0_d_0_1" x="126.736" y="83.3636" width="234.705" height="22.1364" filterUnits="userSpaceOnUse" color-interpolation-filters="sRGB">
<feFlood flood-opacity="0" result="BackgroundImageFix"/>
<feColorMatrix in="SourceAlpha" type="matrix" values="0 0 0 0 0 0 0 0 0 0 0 0 0 0 0 0 0 0 127 0" result="hardAlpha"/>
<feOffset dy="4"/>
<feGaussianBlur stdDeviation="2"/>
<feComposite in2="hardAlpha" operator="out"/>
<feColorMatrix type="matrix" values="0 0 0 0 0 0 0 0 0 0 0 0 0 0 0 0 0 0 0.25 0"/>
<feBlend mode="normal" in2="BackgroundImageFix" result="effect1_dropShadow_0_1"/>
<feBlend mode="normal" in="SourceGraphic" in2="effect1_dropShadow_0_1" result="shape"/>
</filter>
</defs>
</svg>
